<?xml version="1.0" encoding="UTF-8" standalone="no"?>
<!-- Generator: Adobe Illustrator 13.0.0, SVG Export Plug-In . SVG Version: 6.00 Build 14948)  -->

<svg
   version="1.0"
   x="0px"
   y="0px"
   width="100.00049"
   height="24.55372"
   viewBox="0 0 100.00049 24.55372"
   enable-background="new 0 0 100.54102 54.32812"
   xml:space="preserve"
   id="svg141"
   sodipodi:docname="HTWK_white_text.svg"
   inkscape:version="1.2 (dc2aeda, 2022-05-15)"
   xmlns:inkscape="http://www.inkscape.org/namespaces/inkscape"
   xmlns:sodipodi="http://sodipodi.sourceforge.net/DTD/sodipodi-0.dtd"
   xmlns="http://www.w3.org/2000/svg"
   xmlns:svg="http://www.w3.org/2000/svg"><defs
   id="defs145" /><sodipodi:namedview
   id="namedview143"
   pagecolor="#ffffff"
   bordercolor="#000000"
   borderopacity="0.25"
   inkscape:showpageshadow="2"
   inkscape:pageopacity="0.0"
   inkscape:pagecheckerboard="0"
   inkscape:deskcolor="#d1d1d1"
   showgrid="false"
   inkscape:zoom="4.343975"
   inkscape:cx="29.350998"
   inkscape:cy="27.164061"
   inkscape:window-width="1344"
   inkscape:window-height="456"
   inkscape:window-x="0"
   inkscape:window-y="34"
   inkscape:window-maximized="0"
   inkscape:current-layer="svg141" />
<g
   id="BoundingBox"
   transform="translate(-0.53467,-0.05273)">
	<rect
   fill="none"
   width="100.54102"
   height="54.328121"
   id="rect132"
   x="0"
   y="0" />
</g>
<g
   id="HTWK"
   style="fill:#ffffff"
   transform="translate(-0.53467,-0.05273)">
	<path
   d="M 43.99023,0.05322 V 4.72168 H 37.24951 V 24.60645 H 31.67627 V 4.72168 H 24.93506 V 0.05322 Z m 7.28907,24.55323 h 6.85352 L 60.4297,13.45948 c 0.41406,-1.8833 0.7168,-3.87939 1.01562,-5.68701 h 0.15234 c 0.26367,1.80762 0.56445,3.80371 0.97852,5.68701 l 2.41016,11.14697 h 6.9668 L 76.32228,0.05274 h -5.31055 l -1.69336,11.48633 c -0.33984,2.52246 -0.67969,5.12158 -1.01758,7.75684 H 68.1504 C 67.66017,16.66066 67.16993,14.02443 66.6797,11.53907 L 64.04492,0.05273 h -4.70703 l -2.63477,11.48633 c -0.49219,2.56055 -0.98047,5.15869 -1.4707,7.75684 H 55.08203 C 54.78125,16.69776 54.4043,14.09961 54.10351,11.53906 L 52.4082,0.05273 h -5.68604 z m 28.80664,0 h 5.57422 V 14.44141 h 2.63281 l 6.17969,10.16504 h 6.0625 L 92.9043,11.91602 98.79883,0.05274 h -5.5293 l -5.01758,9.86328 h -2.5918 V 0.05273 h -5.57422 v 24.55372 z m -63.86377,0 h 5.57275 V 0.05273 H 18.229 16.22216 v 24.55372 z m -15.6875,0 H 6.10791 V 0.05322 H 3.88818 0.53467 Z M 7.88721,13.11572 h 6.55664 V 10.72656 H 10.58447 7.88721 Z"
   id="path135"
   style="fill:#ffffff" />
</g>

</svg>
